<svg xmlns="http://www.w3.org/2000/svg" xmlns:xlink="http://www.w3.org/1999/xlink" width="256" height="326" preserveAspectRatio="xMidYMid" version="1.1" viewBox="0 0 256 326"><defs><path id="path-1" d="M244.828364,64.4290247 L139.050994,3.38839172 C132.188872,-0.58635615 123.724702,-0.58635615 116.86258,3.38839172 L11.0672138,64.4290247 C4.21670092,68.4140969 5.68434189e-14,75.7408852 5.68434189e-14,83.6661817 L5.68434189e-14,205.837425 C0.00604377806,213.747388 4.22254667,221.055993 11.0672138,225.020596 L63.99189,255.612894 L63.99189,317.985192 C64.0010519,320.359385 65.2737404,322.549075 67.3321592,323.732202 C69.390578,324.915329 71.9232588,324.91287 73.9793756,323.725747 L244.936337,225.074582 C251.789146,221.118113 256.008624,213.804351 256.003556,205.891411 L256.003556,83.6481863 C255.962209,75.7100959 251.7068,68.3916143 244.828364,64.4290247 L244.828364,64.4290247 Z"/></defs><g><mask id="mask-2" fill="#fff"><use xlink:href="#path-1"/></mask><polygon fill="#EF6C00" points="255.896 70.871 127.984 144.743 0 70.871 0 218.614 63.992 255.523 63.992 329.412 255.896 218.614" mask="url(#mask-2)"/><polygon fill="#FF9800" points="127.984 144.743 0 70.871 127.984 -3 255.896 70.871" mask="url(#mask-2)"/><polygon fill="#FF9800" points="125.716 142.493 .81 70.386 0 70.871 127.984 144.743 255.896 70.871 252.89 69.09" mask="url(#mask-2)"/><polygon fill="#FF9800" points="127.984 145.661 127.984 144.743 .81 71.303 0 71.789" mask="url(#mask-2)"/></g></svg>